<svg xmlns="http://www.w3.org/2000/svg" viewBox="0 0 120 126" fill="none">
  <path d="M20.6927 21.9395C24.5214 25.3925 26.0257 24.8555 33.95 23.1915L103.151 8.82554C111.075 7.16154 113.147 2.24954 107.725 0.0395407C105.217 -0.774459 101.482 0.303542 98.0321 1.39654L24.1707 16.4945C22.1351 16.9675 21.4644 15.3475 23.3564 14.5495C28.2814 12.4235 37.6444 9.94754 37.6444 9.94754C41.2141 8.62254 40.4127 6.59654 36.2184 5.26354C32.0241 3.93154 21.0464 6.58854 16.4961 8.23854C11.9451 9.88754 10.1841 12.0075 14.1391 13.2095L20.6927 21.9395Z" fill="black"/>
  <path d="M22.6719 36.1036C26.2392 39.5726 30.488 38.6316 40.3053 36.6366L91.457 27.3876C95.0216 26.6466 94.6864 22.5086 90.8576 22.6226L35.3591 32.8516C32.0061 33.5446 31.4711 31.2626 34.2908 29.7896C34.2908 29.7896 82.8219 9.94956 86.5115 8.15956C90.1978 6.36956 87.4879 3.95156 84.304 4.99956C81.1215 6.04856 35.1298 21.0926 30.0755 22.8966C24.9996 24.7016 19.0992 32.6356 22.6719 36.1036Z" fill="black"/>
  <path d="M10.5266 61.4901V121.307C10.5266 125.166 13.2323 126.9 21.5491 124.729L104.747 102.863C104.747 102.863 106.628 102.302 106.628 99.9901V37.8511C106.628 35.1761 103.927 33.5221 101.073 34.3041L83.5355 38.5421L16.8172 55.4701C13.0038 56.6341 10.5266 58.6641 10.5266 61.4901Z" fill="black"/>
  <path fill-rule="evenodd" clip-rule="evenodd" d="M90.3126 45.9346C93.6616 44.8546 97.2259 45.4946 97.2259 49.2086V101.793C97.2259 104.861 95.2923 106.026 91.8329 107.145L31.8253 124.296C29.4243 125.085 28.166 124.615 27.0733 124.056C25.9806 123.497 24.9956 122.075 24.9956 119.326V75.3736C24.9956 73.3086 25.9698 71.5946 27.9189 70.7446L90.3126 45.9346ZM34.2 77.7346C34.2 76.1226 34.7806 75.6076 36.3915 75.0346L85.5159 57.4326C87.1255 56.8746 87.996 57.3896 87.996 58.9986V108.661C87.996 110.28 87.4715 110.945 85.5159 111.604L38.4021 123.175C35.9795 123.842 34.2 122.952 34.2 120.062V77.7346Z" fill="black"/>
</svg> 